<?xml version="1.0" standalone="no"?>
<!DOCTYPE svg PUBLIC "-//W3C//DTD SVG 20010904//EN"
 "http://www.w3.org/TR/2001/REC-SVG-20010904/DTD/svg10.dtd">
<svg version="1.0" xmlns="http://www.w3.org/2000/svg"
 width="280.109582pt" height="129.930227pt" viewBox="0 0 280.109582 129.930227"
 preserveAspectRatio="xMidYMid meet">
<metadata>
Created by potrace 1.12, written by Peter Selinger 2001-2015
</metadata>
<g transform="translate(-98.890418,308.152524) scale(0.100000,-0.100000)"
fill="#000000" stroke="none">
<path d="M1023 3038 c-6 -24 -15 -51 -18 -60 -6 -15 -1 -18 35 -18 46 0 46 0
11 83 l-16 39 -12 -44z"/>
<path d="M1804 3042 c-262 -127 -189 -506 102 -530 167 -13 315 111 318 267 1
84 -11 125 -53 178 -56 72 -126 106 -226 111 -72 3 -86 0 -141 -26z m216 -102
c87 -44 115 -156 61 -241 -34 -54 -80 -79 -146 -79 -152 0 -235 165 -140 278
52 62 150 80 225 42z"/>
<path d="M1120 2795 l0 -265 55 0 54 0 3 103 3 102 108 3 107 3 0 -105 c0 -58
3 -107 8 -109 4 -2 31 -2 60 1 l52 4 0 264 0 264 -60 0 -60 0 0 -110 0 -110
-110 0 -110 0 0 110 0 110 -55 0 -55 0 0 -265z"/>
<path d="M2300 2792 l0 -268 153 2 c172 1 209 11 248 65 34 48 34 143 0 189
-19 27 -21 36 -12 57 17 37 13 121 -6 154 -33 55 -82 69 -241 69 l-142 0 0
-268z m269 153 c23 -25 22 -55 -3 -80 -22 -22 -34 -25 -91 -25 l-65 0 0 53 c0
30 3 57 8 61 10 11 140 3 151 -9z m19 -211 c26 -18 30 -65 7 -88 -18 -17 -83
-29 -140 -24 l-40 3 -3 63 -3 62 78 0 c55 0 85 -5 101 -16z"/>
<path d="M2802 2793 l3 -268 160 3 c180 4 214 13 252 71 34 51 32 138 -4 181
-25 31 -26 32 -10 66 36 74 6 158 -68 194 -36 17 -62 20 -188 20 l-147 0 2
-267z m278 147 c26 -26 25 -55 0 -80 -18 -18 -31 -20 -88 -18 l-67 3 -3 44
c-5 67 -1 71 73 71 52 0 69 -4 85 -20z m20 -208 c26 -21 30 -67 9 -87 -16 -15
-167 -27 -175 -14 -7 12 -14 102 -8 111 3 4 38 8 78 8 56 0 79 -4 96 -18z"/>
<path d="M3250 3055 c0 -2 47 -73 105 -157 93 -135 105 -158 106 -198 1 -25 2
-52 3 -60 2 -8 3 -39 4 -67 l2 -53 55 0 55 0 0 110 0 109 105 156 c58 85 105
157 105 160 0 3 -31 5 -70 5 l-69 0 -67 -101 -66 -102 -21 34 c-11 19 -40 64
-64 102 l-43 67 -70 0 c-38 0 -70 -2 -70 -5z"/>
<path d="M992 2883 l3 -48 43 -3 42 -3 0 50 0 51 -46 0 -45 0 3 -47z"/>
<path d="M1010 2666 c0 -74 4 -137 9 -140 5 -4 16 -3 25 0 12 5 15 30 18 140
l3 134 -27 0 -28 0 0 -134z"/>
<path d="M3433 2293 c-7 -5 -10 -18 -6 -31 5 -19 12 -22 55 -22 55 0 110 -24
150 -67 77 -81 60 -221 -35 -297 -31 -25 -49 -31 -102 -34 -112 -7 -193 52
-222 161 -13 53 -12 68 18 159 25 76 24 86 -7 57 -42 -39 -67 -98 -68 -159 -1
-87 19 -136 77 -195 44 -43 63 -54 119 -70 74 -20 123 -13 198 25 71 36 130
137 130 220 0 87 -65 191 -143 229 -46 22 -145 37 -164 24z"/>
<path d="M1000 2045 l0 -245 120 0 120 0 0 245 0 245 -120 0 -120 0 0 -245z"/>
<path d="M1381 2264 c-17 -14 -36 -43 -42 -64 -10 -33 -9 -44 10 -84 19 -39
32 -50 87 -76 35 -16 68 -30 73 -30 20 0 51 -54 51 -87 0 -49 -37 -83 -89 -83
-50 0 -89 17 -97 42 -3 12 -12 17 -21 14 -8 -3 -19 -6 -24 -6 -19 0 -8 -27 24
-57 17 -17 51 -37 74 -44 36 -10 49 -9 87 5 67 26 96 65 96 131 0 71 -30 107
-127 151 -74 34 -93 54 -93 98 0 57 81 86 131 47 21 -16 28 -17 48 -7 l23 13
-37 31 c-31 28 -43 32 -90 32 -43 0 -59 -5 -84 -26z"/>
<path d="M1630 2265 c0 -24 2 -25 75 -25 l75 0 0 -226 0 -225 23 3 c22 3 22 4
27 223 l5 220 53 3 c48 3 52 5 52 28 l0 24 -155 0 -155 0 0 -25z"/>
<path d="M2012 2103 l3 -188 30 -42 c80 -113 267 -119 348 -11 38 51 47 100
47 271 l0 157 -29 0 -30 0 -3 -179 c-3 -196 -6 -206 -70 -254 -36 -27 -124
-27 -169 -1 -69 41 -74 56 -77 255 l-4 179 -24 0 -25 0 3 -187z"/>
<path d="M2608 2144 c-2 -82 -2 -196 0 -253 l3 -104 82 6 c96 7 126 16 178 58
78 62 112 194 73 287 -39 94 -121 144 -246 150 l-87 4 -3 -148z m190 70 c61
-25 112 -102 112 -169 0 -63 -53 -150 -109 -179 -14 -8 -52 -17 -84 -21 l-57
-7 0 202 0 203 52 -7 c28 -4 67 -14 86 -22z"/>
<path d="M3082 2043 l3 -248 25 0 25 0 3 248 2 247 -30 0 -30 0 2 -247z"/>
<path d="M3371 2184 c-82 -69 -81 -206 2 -268 15 -11 29 -17 32 -14 3 3 4 74
3 158 l-3 153 -34 -29z"/>
</g>
</svg>
